Coordinates
version=1
nRows=29
nColumns=24
inDegrees=yes

Units are S.I. units (second, meters, Newtons, ...)
Angles are in degrees.

endheader
time	pelvis_tilt	pelvis_list	pelvis_rotation	pelvis_tx	pelvis_ty	pelvis_tz	hip_flexion_r	hip_adduction_r	hip_rotation_r	knee_angle_r	ankle_angle_r	subtalar_angle_r	mtp_angle_r	hip_flexion_l	hip_adduction_l	hip_rotation_l	knee_angle_l	ankle_angle_l	subtalar_angle_l	mtp_angle_l	lumbar_extension	lumbar_bending	lumbar_rotation
      4.90000000	     -9.70622600	     -1.68945681	      6.97657015	     -1.21435330	     -0.03289363	      2.01673282	     34.97155788	     -0.69993248	    -17.07526977	     -7.98573562	     -1.05339055	      4.71526562	     20.64699699	     -5.81674704	     -0.22443716	     -6.55773810	    -13.61340013	     10.56607472	      6.90452519	      9.85366844	      3.80008500	      1.16006793	     -8.74024533
      4.91000000	     -9.58363158	     -1.98581500	      7.34418521	     -1.19889272	     -0.03433882	      2.01736150	     35.00309229	     -0.63820690	    -17.11421142	     -9.61009375	     -1.15871858	      3.92662519	     20.74922047	     -6.02966758	     -0.98988741	     -6.18170972	    -15.17290666	     10.04389126	      7.69067165	     10.16874273	      3.98673225	      1.46404980	     -9.10036076
      4.92000000	     -9.46925119	     -2.29429519	      7.60998778	     -1.18323444	     -0.03570796	      2.01833876	     34.96645233	     -0.45835737	    -16.95426310	    -11.27040504	     -1.58148785	      2.77886194	     19.17012258	     -6.15969837	     -1.78796779	     -5.92131368	    -16.77681841	      8.88790650	      8.32101849	     12.51180271	      4.20088627	      1.76043051	     -9.34202212
      4.93000000	     -9.40101541	     -2.76191260	      7.78276965	     -1.16742452	     -0.03691981	      2.01958870	     34.85426746	     -0.02065298	    -16.69215333	    -12.74066317	     -2.18685917	      1.49642557	     14.21443069	     -6.05967630	     -2.76962827	     -5.81146474	    -18.66446266	      7.65826874	      8.97023391	     14.07334188	      4.49697392	      2.21226186	     -9.53140447
      4.94000000	     -9.41816922	     -3.41197174	      7.82612998	     -1.15157836	     -0.03787863	      2.02113410	     34.73294085	      0.69469210	    -16.42496212	    -13.89456159	     -3.11781788	      0.18161883	      7.79275540	     -5.66936160	     -3.96121820	     -5.93728597	    -20.79467478	      6.02851084	      9.58823240	     16.22213748	      4.90437057	      2.84654870	     -9.62668739
      4.95000000	     -9.54752669	     -4.19862721	      7.72330110	     -1.13582323	     -0.03853213	      2.02285478	     34.72117422	      1.60433628	    -16.21784497	    -14.85139816	     -4.35584412	     -1.04685562	      2.26992334	     -4.94521876	     -5.28960485	     -6.25775933	    -23.16443818	      3.85082531	      9.99004794	     18.96602699	      5.42550107	      3.63344034	     -9.60707406
      4.96000000	     -9.74651191	     -5.07717657	      7.53079540	     -1.12010291	     -0.03886856	      2.02459005	     34.84299532	      2.60854328	    -16.17593155	    -15.82590849	     -5.77183557	     -2.12116711	     -0.43920451	     -3.93061070	     -6.71354105	     -6.70612802	    -25.76767978	      1.12208848	     10.11253044	     21.77603634	      6.02286794	      4.53462844	     -9.55270508
      4.97000000	     -9.97873779	     -5.93315022	      7.29769259	     -1.10458871	     -0.03898485	      2.02626298	     35.09497349	      3.57875334	    -16.19691520	    -16.99257966	     -7.05137245	     -3.06202257	     -0.93627496	     -2.64986871	     -8.09299685	     -7.08604458	    -28.58769215	     -2.24513252	      9.74986002	     24.96335577	      6.61360004	      5.43672747	     -9.45713548
      4.98000000	    -10.20817088	     -6.74431652	      7.08482334	     -1.08911846	     -0.03899389	      2.02790483	     35.35238290	      4.49180407	    -16.34086895	    -18.26817871	     -7.98733988	     -3.93840616	      0.46129853	     -1.16997785	     -9.42030704	     -7.35531638	    -31.52629288	     -6.35094375	      8.80820338	     29.08300606	      7.19123024	      6.28991359	     -9.39028917
      4.99000000	    -10.20105645	     -7.66465067	      6.93911760	     -1.07366232	     -0.03882402	      2.02950338	     35.22895572	      5.54969510	    -16.64648784	    -19.34111591	     -8.71669970	     -4.88217910	      3.93035165	      0.25908330	    -10.90733729	     -7.50085563	    -34.59248564	    -10.82587240	      7.42473110	     33.55765166	      7.53147777	      7.27248359	     -9.46745499
      5.00000000	    -10.50824272	     -8.43583539	      6.66298614	     -1.05860650	     -0.03908933	      2.03131056	     35.36977548	      6.52084943	    -16.73010850	    -20.37059066	     -8.83910034	     -5.68655687	      6.85871659	      2.21229597	    -12.12067442	     -7.41409951	    -37.87299309	    -15.37338395	      5.41007742	     36.69915897	      8.11486081	      8.06734464	     -9.39389774
      5.01000000	    -10.66119526	     -9.45808607	      6.45771898	     -1.04374753	     -0.03926162	      2.03306656	     35.13817926	      7.78166140	    -16.97075456	    -20.97178954	     -8.67593973	     -6.40091546	      9.35856590	      4.20076758	    -13.59873747	     -7.05685603	    -41.28906948	    -19.56580021	      3.27015026	     39.00682666	      8.54983046	      9.12329050	     -9.43306550
      5.02000000	    -10.75921094	    -10.58372187	      6.24593934	     -1.02920100	     -0.03934859	      2.03476493	     34.68605228	      9.19535377	    -17.23554513	    -21.27490547	     -8.04901703	     -6.78387072	     10.19308256	      6.26567103	    -15.11240199	     -6.44838076	    -44.78076594	    -22.98936822	      1.21152499	     39.32043515	      8.89256904	     10.29431923	     -9.46959500
      5.03000000	    -10.83039816	    -11.56595953	      5.87636755	     -1.01490696	     -0.03915970	      2.03663721	     34.03965653	     10.60661164	    -17.30516338	    -21.31970013	     -7.37160207	     -7.05808783	     10.95938045	      8.24230157	    -16.39967060	     -5.85687281	    -48.02718933	    -25.92860036	     -0.85070589	     39.48508723	      9.11603180	     11.34766580	     -9.27708607
      5.04000000	    -10.72759251	    -12.40423034	      5.49529706	     -1.00095573	     -0.03848897	      2.03847811	     33.07227671	     11.93434080	    -17.31339400	    -21.16012254	     -6.64453669	     -7.15506487	     11.29687314	     10.00458150	    -17.44552511	     -5.17232809	    -51.03205116	    -27.88731332	     -2.59250025	     39.19851418	      9.05878423	     12.27777437	     -8.92446506
      5.05000000	    -10.70465152	    -13.07997081	      5.18217442	     -0.98722592	     -0.03763305	      2.04017861	     32.09966006	     13.02269729	    -17.44875611	    -20.90243519	     -5.83696823	     -6.91890152	     11.81629838	     11.88438158	    -18.18265316	     -4.30020163	    -53.81683277	    -28.75023009	     -3.88487659	     39.08842111	      9.05513314	     13.01358227	     -8.60204437
      5.06000000	    -10.67041064	    -13.55070513	      4.91120917	     -0.97370934	     -0.03648463	      2.04180704	     31.02546656	     13.88878564	    -17.52403224	    -20.55379203	     -5.03231385	     -6.50661067	     12.59363317	     13.74262519	    -18.57775524	     -3.32347892	    -56.32801193	    -28.58121752	     -4.69765599	     39.34063205	      8.99580772	     13.52677738	     -8.24251010
      5.07000000	    -10.66420521	    -13.80134801	      4.68241808	     -0.96041103	     -0.03506335	      2.04336688	     29.87651875	     14.53656924	    -17.42146537	    -20.04277327	     -4.54714825	     -6.26786282	     14.78038728	     15.61193706	    -18.60860136	     -2.30791215	    -58.47859519	    -27.95059754	     -5.44480574	     40.66258944	      8.92818430	     13.79172690	     -7.83566106
      5.08000000	    -10.44927874	    -13.88122865	      4.43514693	     -0.94726130	     -0.03325765	      2.04499668	     28.42383859	     15.11254870	    -16.90429331	    -19.50153136	     -3.78084734	     -5.97904622	     15.03952673	     17.18601823	    -18.41437385	     -1.37498825	    -60.34045426	    -26.50618745	     -5.56496998	     41.23736567	      8.58074033	     13.89398246	     -7.23667636
      5.09000000	    -10.25451805	    -13.95152987	      4.46260413	     -0.93432500	     -0.03137309	      2.04630200	     26.93817104	     15.57833428	    -16.43582615	    -18.76853023	     -3.21289681	     -5.93357490	     15.06653969	     18.91804197	    -18.03969831	     -0.16617694	    -61.90602582	    -24.97913854	     -5.74207921	     42.47511844	      8.31524001	     13.91682289	     -6.95404750
      5.10000000	    -10.02659817	    -13.89427016	      4.43847827	     -0.92147040	     -0.02940394	      2.04765313	     25.35524189	     15.95302144	    -15.79707249	    -17.98857098	     -2.62478931	     -5.86516062	     14.70735153	     20.52240559	    -17.50716480	      0.87617136	    -63.14065429	    -23.27071937	     -5.75017448	     43.51307479	      7.98411787	     13.81299159	     -6.55192784
      5.11000000	     -9.72266609	    -13.75639276	      4.54604258	     -0.90883662	     -0.02736350	      2.04884870	     23.68175071	     16.19715739	    -15.22804792	    -17.17018661	     -1.98750832	     -5.77539293	     13.71944213	     22.05273461	    -16.80399052	      1.95321099	    -64.06727032	    -21.62376913	     -5.78344427	     44.44743527	      7.56688348	     13.60685527	     -6.23401913
      5.12000000	     -9.51438503	    -13.55632252	      4.56472847	     -0.89615460	     -0.02547458	      2.05002503	     22.07655486	     16.35197778	    -14.79013047	    -16.32334124	     -1.44325925	     -5.51291007	     13.44607367	     23.56378986	    -16.03734708	      2.80381434	    -64.69802867	    -19.73785935	     -5.80859880	     44.68338844	      7.25893551	     13.34999674	     -5.85304409
      5.13000000	     -9.30097296	    -13.26955425	      4.65447563	     -0.88359535	     -0.02359841	      2.05108795	     20.46365398	     16.36813266	    -14.52707999	    -15.44334579	     -0.99376729	     -5.21553925	     13.34834585	     24.99562642	    -15.12299065	      3.60229610	    -64.99185425	    -17.86408823	     -5.92817495	     44.75790432	      6.94250248	     12.99152592	     -5.50054796
      5.14000000	     -9.02893330	    -12.92076761	      4.80047123	     -0.87108474	     -0.02177085	      2.05200410	     18.78157692	     16.29308111	    -14.31631706	    -14.55053209	     -0.50680637	     -4.83480397	     13.34715812	     26.26830932	    -14.11809560	      4.29416147	    -64.96225546	    -15.99600871	     -6.20231970	     44.40749729	      6.57140200	     12.58092042	     -5.26525852
      5.15000000	     -8.83824945	    -12.48072700	      4.89366546	     -0.85869427	     -0.02008393	      2.05298710	     17.20189638	     16.11290055	    -14.13832199	    -13.69144776	     -0.09890525	     -4.44875492	     13.47795246	     27.49850421	    -13.03651720	      4.81873413	    -64.60137238	    -14.16589072	     -6.48602491	     43.87894411	      6.25772581	     12.07336193	     -4.92616227
      5.16000000	     -8.68442536	    -11.98605668	      4.96355454	     -0.84634875	     -0.01857351	      2.05393188	     15.66011660	     15.87978519	    -13.83225486	    -12.83006608	      0.25077874	     -4.23005723	     13.84585787	     28.65996284	    -11.92674602	      5.14378783	    -63.94944680	    -12.45452135	     -6.97089475	     42.29947125	      5.97027856	     11.51817200	     -4.66944260
      5.17000000	     -8.78863063	    -11.53342349	      4.95767237	     -0.83408507	     -0.01750184	      2.05504362	     14.43345377	     15.67320910	    -13.50277671	    -12.01377114	      0.55646166	     -4.06432014	     13.89370740	     30.03481190	    -10.91256212	      5.40727188	    -62.99354216	    -11.06584144	     -7.29908745	     42.23082875	      5.95180518	     10.98028403	     -4.37113252
      5.18000000	     -8.54588443	    -11.05021329	      4.98992608	     -0.82180621	     -0.01621028	      2.05603900	     12.78754740	     15.46549153	    -13.17378772	    -11.11675202	      0.80944199	     -3.87956818	     13.95361792	     30.91529496	     -9.96267630	      5.46663850	    -61.78768811	     -9.63231320	     -7.56509133	     40.16161855	      5.55447667	     10.44860680	     -4.05038271
